<mxfile host="app.diagrams.net" modified="2023-07-16T06:47:27.111Z" agent="Mozilla/5.0 (Macintosh; Intel Mac OS X 10.15; rv:109.0) Gecko/20100101 Firefox/115.0" etag="c5ZzoaZHGwQMjee_MRHJ" version="21.6.2" type="github">
  <diagram name="第 1 页" id="K2gPLgGYFfyZ1PjBPnc_">
    <mxGraphModel dx="1256" dy="571" grid="1" gridSize="10" guides="1" tooltips="1" connect="1" arrows="1" fold="1" page="1" pageScale="1" pageWidth="827" pageHeight="1169" math="0" shadow="0">
      <root>
        <mxCell id="0" />
        <mxCell id="1" parent="0" />
        <mxCell id="d2luuPzeZMeKNCECwPl0-55" value="" style="rounded=0;whiteSpace=wrap;html=1;fillColor=#d5e8d4;strokeColor=#82b366;fontStyle=1" vertex="1" parent="1">
          <mxGeometry x="577" y="390" width="140" height="140" as="geometry" />
        </mxCell>
        <mxCell id="d2luuPzeZMeKNCECwPl0-56" value="" style="rounded=0;whiteSpace=wrap;html=1;fillColor=#d5e8d4;strokeColor=#82b366;fontStyle=1" vertex="1" parent="1">
          <mxGeometry x="397" y="390" width="140" height="140" as="geometry" />
        </mxCell>
        <mxCell id="d2luuPzeZMeKNCECwPl0-57" value="" style="rounded=0;whiteSpace=wrap;html=1;fillColor=#d5e8d4;strokeColor=#82b366;fontStyle=1" vertex="1" parent="1">
          <mxGeometry x="150" y="390" width="140" height="140" as="geometry" />
        </mxCell>
        <mxCell id="d2luuPzeZMeKNCECwPl0-61" value="" style="rounded=0;whiteSpace=wrap;html=1;fillColor=#d5e8d4;strokeColor=#82b366;fontStyle=1" vertex="1" parent="1">
          <mxGeometry x="394.5" y="140" width="140" height="160" as="geometry" />
        </mxCell>
        <mxCell id="d2luuPzeZMeKNCECwPl0-89" style="edgeStyle=orthogonalEdgeStyle;rounded=0;orthogonalLoop=1;jettySize=auto;html=1;exitX=0;exitY=0.5;exitDx=0;exitDy=0;entryX=0;entryY=0.5;entryDx=0;entryDy=0;fontStyle=1" edge="1" parent="1" source="d2luuPzeZMeKNCECwPl0-62" target="d2luuPzeZMeKNCECwPl0-67">
          <mxGeometry relative="1" as="geometry">
            <Array as="points">
              <mxPoint x="117" y="185" />
              <mxPoint x="117" y="430" />
            </Array>
          </mxGeometry>
        </mxCell>
        <mxCell id="d2luuPzeZMeKNCECwPl0-90" style="edgeStyle=orthogonalEdgeStyle;rounded=0;orthogonalLoop=1;jettySize=auto;html=1;exitX=0;exitY=0.5;exitDx=0;exitDy=0;entryX=0;entryY=0.5;entryDx=0;entryDy=0;fontStyle=1" edge="1" parent="1" source="d2luuPzeZMeKNCECwPl0-62" target="d2luuPzeZMeKNCECwPl0-72">
          <mxGeometry relative="1" as="geometry">
            <Array as="points">
              <mxPoint x="377" y="185" />
              <mxPoint x="377" y="430" />
            </Array>
          </mxGeometry>
        </mxCell>
        <mxCell id="d2luuPzeZMeKNCECwPl0-96" style="edgeStyle=orthogonalEdgeStyle;rounded=0;orthogonalLoop=1;jettySize=auto;html=1;exitX=1;exitY=0.5;exitDx=0;exitDy=0;entryX=1;entryY=0.5;entryDx=0;entryDy=0;fontStyle=1" edge="1" parent="1" source="d2luuPzeZMeKNCECwPl0-62" target="d2luuPzeZMeKNCECwPl0-77">
          <mxGeometry relative="1" as="geometry">
            <Array as="points">
              <mxPoint x="747" y="185" />
              <mxPoint x="747" y="430" />
            </Array>
          </mxGeometry>
        </mxCell>
        <mxCell id="d2luuPzeZMeKNCECwPl0-62" value="table 1" style="rounded=0;whiteSpace=wrap;html=1;fillColor=#dae8fc;strokeColor=#000000;fontStyle=1" vertex="1" parent="1">
          <mxGeometry x="407" y="170" width="115" height="30" as="geometry" />
        </mxCell>
        <mxCell id="d2luuPzeZMeKNCECwPl0-92" style="edgeStyle=orthogonalEdgeStyle;rounded=0;orthogonalLoop=1;jettySize=auto;html=1;exitX=0;exitY=0.5;exitDx=0;exitDy=0;entryX=0;entryY=0.5;entryDx=0;entryDy=0;fontStyle=1" edge="1" parent="1" source="d2luuPzeZMeKNCECwPl0-63" target="d2luuPzeZMeKNCECwPl0-74">
          <mxGeometry relative="1" as="geometry">
            <Array as="points">
              <mxPoint x="377" y="215" />
              <mxPoint x="377" y="470" />
            </Array>
          </mxGeometry>
        </mxCell>
        <mxCell id="d2luuPzeZMeKNCECwPl0-93" style="edgeStyle=orthogonalEdgeStyle;rounded=0;orthogonalLoop=1;jettySize=auto;html=1;exitX=0;exitY=0.5;exitDx=0;exitDy=0;entryX=0;entryY=0.5;entryDx=0;entryDy=0;fontStyle=1" edge="1" parent="1" source="d2luuPzeZMeKNCECwPl0-63" target="d2luuPzeZMeKNCECwPl0-69">
          <mxGeometry relative="1" as="geometry">
            <Array as="points">
              <mxPoint x="117" y="215" />
              <mxPoint x="117" y="470" />
            </Array>
          </mxGeometry>
        </mxCell>
        <mxCell id="d2luuPzeZMeKNCECwPl0-97" style="edgeStyle=orthogonalEdgeStyle;rounded=0;orthogonalLoop=1;jettySize=auto;html=1;exitX=1;exitY=0.5;exitDx=0;exitDy=0;entryX=1;entryY=0.5;entryDx=0;entryDy=0;fontStyle=1" edge="1" parent="1" source="d2luuPzeZMeKNCECwPl0-63" target="d2luuPzeZMeKNCECwPl0-79">
          <mxGeometry relative="1" as="geometry">
            <Array as="points">
              <mxPoint x="747" y="215" />
              <mxPoint x="747" y="470" />
            </Array>
          </mxGeometry>
        </mxCell>
        <mxCell id="d2luuPzeZMeKNCECwPl0-63" value="table 2" style="rounded=0;whiteSpace=wrap;html=1;fillColor=#e1d5e7;strokeColor=#9673a6;fontStyle=1" vertex="1" parent="1">
          <mxGeometry x="407" y="200" width="115" height="30" as="geometry" />
        </mxCell>
        <mxCell id="d2luuPzeZMeKNCECwPl0-64" value="&lt;font style=&quot;font-size: 14px;&quot;&gt;&lt;span&gt;...&lt;/span&gt;&lt;/font&gt;" style="rounded=0;whiteSpace=wrap;html=1;fillColor=#f5f5f5;strokeColor=#666666;fontColor=#333333;fontStyle=1" vertex="1" parent="1">
          <mxGeometry x="407" y="230" width="115" height="30" as="geometry" />
        </mxCell>
        <mxCell id="d2luuPzeZMeKNCECwPl0-98" style="edgeStyle=orthogonalEdgeStyle;rounded=0;orthogonalLoop=1;jettySize=auto;html=1;exitX=1;exitY=0.5;exitDx=0;exitDy=0;entryX=1;entryY=0.5;entryDx=0;entryDy=0;fontStyle=1" edge="1" parent="1" source="d2luuPzeZMeKNCECwPl0-65" target="d2luuPzeZMeKNCECwPl0-81">
          <mxGeometry relative="1" as="geometry">
            <Array as="points">
              <mxPoint x="747" y="275" />
              <mxPoint x="747" y="510" />
            </Array>
          </mxGeometry>
        </mxCell>
        <mxCell id="d2luuPzeZMeKNCECwPl0-99" style="edgeStyle=orthogonalEdgeStyle;rounded=0;orthogonalLoop=1;jettySize=auto;html=1;exitX=0;exitY=0.5;exitDx=0;exitDy=0;entryX=0;entryY=0.5;entryDx=0;entryDy=0;fontStyle=1" edge="1" parent="1" source="d2luuPzeZMeKNCECwPl0-65" target="d2luuPzeZMeKNCECwPl0-76">
          <mxGeometry relative="1" as="geometry">
            <Array as="points">
              <mxPoint x="377" y="275" />
              <mxPoint x="377" y="510" />
            </Array>
          </mxGeometry>
        </mxCell>
        <mxCell id="d2luuPzeZMeKNCECwPl0-100" style="edgeStyle=orthogonalEdgeStyle;rounded=0;orthogonalLoop=1;jettySize=auto;html=1;exitX=0;exitY=0.5;exitDx=0;exitDy=0;entryX=0;entryY=0.5;entryDx=0;entryDy=0;fontStyle=1" edge="1" parent="1" source="d2luuPzeZMeKNCECwPl0-65" target="d2luuPzeZMeKNCECwPl0-71">
          <mxGeometry relative="1" as="geometry">
            <Array as="points">
              <mxPoint x="117" y="275" />
              <mxPoint x="117" y="510" />
            </Array>
          </mxGeometry>
        </mxCell>
        <mxCell id="d2luuPzeZMeKNCECwPl0-65" value="table n" style="rounded=0;whiteSpace=wrap;html=1;fontStyle=1" vertex="1" parent="1">
          <mxGeometry x="407" y="260" width="115" height="30" as="geometry" />
        </mxCell>
        <mxCell id="d2luuPzeZMeKNCECwPl0-66" value="Shard" style="text;html=1;strokeColor=none;fillColor=none;align=center;verticalAlign=middle;whiteSpace=wrap;rounded=0;fontStyle=1" vertex="1" parent="1">
          <mxGeometry x="435" y="140" width="60" height="30" as="geometry" />
        </mxCell>
        <mxCell id="d2luuPzeZMeKNCECwPl0-67" value="table 1 logs" style="rounded=0;whiteSpace=wrap;html=1;fillColor=#dae8fc;strokeColor=#000000;fontStyle=1" vertex="1" parent="1">
          <mxGeometry x="162.5" y="420" width="115" height="20" as="geometry" />
        </mxCell>
        <mxCell id="d2luuPzeZMeKNCECwPl0-68" value="&lt;font style=&quot;font-size: 14px;&quot;&gt;&lt;span&gt;...&lt;/span&gt;&lt;/font&gt;" style="rounded=0;whiteSpace=wrap;html=1;fillColor=#f5f5f5;strokeColor=#666666;fontColor=#333333;fontStyle=1" vertex="1" parent="1">
          <mxGeometry x="162.5" y="440" width="115" height="20" as="geometry" />
        </mxCell>
        <mxCell id="d2luuPzeZMeKNCECwPl0-69" value="table 2 logs" style="rounded=0;whiteSpace=wrap;html=1;fillColor=#e1d5e7;strokeColor=#9673a6;fontStyle=1" vertex="1" parent="1">
          <mxGeometry x="162.5" y="460" width="115" height="20" as="geometry" />
        </mxCell>
        <mxCell id="d2luuPzeZMeKNCECwPl0-70" value="&lt;font style=&quot;font-size: 14px;&quot;&gt;&lt;span&gt;...&lt;/span&gt;&lt;/font&gt;" style="rounded=0;whiteSpace=wrap;html=1;fillColor=#f5f5f5;strokeColor=#666666;fontColor=#333333;fontStyle=1" vertex="1" parent="1">
          <mxGeometry x="162.5" y="480" width="115" height="20" as="geometry" />
        </mxCell>
        <mxCell id="d2luuPzeZMeKNCECwPl0-71" value="table n logs" style="rounded=0;whiteSpace=wrap;html=1;fontStyle=1" vertex="1" parent="1">
          <mxGeometry x="162.5" y="500" width="115" height="20" as="geometry" />
        </mxCell>
        <mxCell id="d2luuPzeZMeKNCECwPl0-72" value="table 1 logs" style="rounded=0;whiteSpace=wrap;html=1;fillColor=#dae8fc;strokeColor=#000000;fontStyle=1" vertex="1" parent="1">
          <mxGeometry x="409.5" y="420" width="115" height="20" as="geometry" />
        </mxCell>
        <mxCell id="d2luuPzeZMeKNCECwPl0-73" value="&lt;font style=&quot;font-size: 14px;&quot;&gt;&lt;span&gt;...&lt;/span&gt;&lt;/font&gt;" style="rounded=0;whiteSpace=wrap;html=1;fillColor=#f5f5f5;strokeColor=#666666;fontColor=#333333;fontStyle=1" vertex="1" parent="1">
          <mxGeometry x="409.5" y="440" width="115" height="20" as="geometry" />
        </mxCell>
        <mxCell id="d2luuPzeZMeKNCECwPl0-74" value="table 2 logs" style="rounded=0;whiteSpace=wrap;html=1;fillColor=#e1d5e7;strokeColor=#9673a6;fontStyle=1" vertex="1" parent="1">
          <mxGeometry x="409.5" y="460" width="115" height="20" as="geometry" />
        </mxCell>
        <mxCell id="d2luuPzeZMeKNCECwPl0-75" value="&lt;font style=&quot;font-size: 14px;&quot;&gt;&lt;span&gt;...&lt;/span&gt;&lt;/font&gt;" style="rounded=0;whiteSpace=wrap;html=1;fillColor=#f5f5f5;strokeColor=#666666;fontColor=#333333;fontStyle=1" vertex="1" parent="1">
          <mxGeometry x="409.5" y="480" width="115" height="20" as="geometry" />
        </mxCell>
        <mxCell id="d2luuPzeZMeKNCECwPl0-76" value="table n logs" style="rounded=0;whiteSpace=wrap;html=1;fontStyle=1" vertex="1" parent="1">
          <mxGeometry x="409.5" y="500" width="115" height="20" as="geometry" />
        </mxCell>
        <mxCell id="d2luuPzeZMeKNCECwPl0-77" value="table 1 logs" style="rounded=0;whiteSpace=wrap;html=1;fillColor=#dae8fc;strokeColor=#000000;fontStyle=1" vertex="1" parent="1">
          <mxGeometry x="589.5" y="420" width="115" height="20" as="geometry" />
        </mxCell>
        <mxCell id="d2luuPzeZMeKNCECwPl0-78" value="&lt;font style=&quot;font-size: 14px;&quot;&gt;&lt;span&gt;...&lt;/span&gt;&lt;/font&gt;" style="rounded=0;whiteSpace=wrap;html=1;fillColor=#f5f5f5;strokeColor=#666666;fontColor=#333333;fontStyle=1" vertex="1" parent="1">
          <mxGeometry x="589.5" y="440" width="115" height="20" as="geometry" />
        </mxCell>
        <mxCell id="d2luuPzeZMeKNCECwPl0-79" value="table 2 logs" style="rounded=0;whiteSpace=wrap;html=1;fillColor=#e1d5e7;strokeColor=#9673a6;fontStyle=1" vertex="1" parent="1">
          <mxGeometry x="589.5" y="460" width="115" height="20" as="geometry" />
        </mxCell>
        <mxCell id="d2luuPzeZMeKNCECwPl0-80" value="&lt;font style=&quot;font-size: 14px;&quot;&gt;&lt;span&gt;...&lt;/span&gt;&lt;/font&gt;" style="rounded=0;whiteSpace=wrap;html=1;fillColor=#f5f5f5;strokeColor=#666666;fontColor=#333333;fontStyle=1" vertex="1" parent="1">
          <mxGeometry x="589.5" y="480" width="115" height="20" as="geometry" />
        </mxCell>
        <mxCell id="d2luuPzeZMeKNCECwPl0-81" value="table n logs" style="rounded=0;whiteSpace=wrap;html=1;fontStyle=1" vertex="1" parent="1">
          <mxGeometry x="589.5" y="500" width="115" height="20" as="geometry" />
        </mxCell>
        <mxCell id="d2luuPzeZMeKNCECwPl0-82" value="&lt;font style=&quot;font-size: 14px;&quot;&gt;&lt;span&gt;...&lt;/span&gt;&lt;br&gt;&lt;/font&gt;" style="text;html=1;strokeColor=none;fillColor=none;align=center;verticalAlign=middle;whiteSpace=wrap;rounded=0;fontStyle=1" vertex="1" parent="1">
          <mxGeometry x="529.5" y="460" width="60" height="30" as="geometry" />
        </mxCell>
        <mxCell id="d2luuPzeZMeKNCECwPl0-83" value="文件 1" style="text;html=1;strokeColor=none;fillColor=none;align=center;verticalAlign=middle;whiteSpace=wrap;rounded=0;fontStyle=1" vertex="1" parent="1">
          <mxGeometry x="190" y="390" width="60" height="30" as="geometry" />
        </mxCell>
        <mxCell id="d2luuPzeZMeKNCECwPl0-84" value="文件 2" style="text;html=1;strokeColor=none;fillColor=none;align=center;verticalAlign=middle;whiteSpace=wrap;rounded=0;fontStyle=1" vertex="1" parent="1">
          <mxGeometry x="437" y="390" width="60" height="30" as="geometry" />
        </mxCell>
        <mxCell id="d2luuPzeZMeKNCECwPl0-85" value="文件 m" style="text;html=1;strokeColor=none;fillColor=none;align=center;verticalAlign=middle;whiteSpace=wrap;rounded=0;fontStyle=1" vertex="1" parent="1">
          <mxGeometry x="617" y="390" width="60" height="30" as="geometry" />
        </mxCell>
        <mxCell id="d2luuPzeZMeKNCECwPl0-101" value="读取文件 1 table 1 部分" style="text;html=1;strokeColor=none;fillColor=none;align=center;verticalAlign=middle;whiteSpace=wrap;rounded=0;strokeWidth=0;fontSize=10;fontStyle=1" vertex="1" parent="1">
          <mxGeometry x="50" y="410" width="70" height="30" as="geometry" />
        </mxCell>
        <mxCell id="d2luuPzeZMeKNCECwPl0-102" value="读取文件 1 table 2 部分" style="text;html=1;strokeColor=none;fillColor=none;align=center;verticalAlign=middle;whiteSpace=wrap;rounded=0;strokeWidth=0;fontSize=10;fontStyle=1" vertex="1" parent="1">
          <mxGeometry x="50" y="455" width="70" height="30" as="geometry" />
        </mxCell>
        <mxCell id="d2luuPzeZMeKNCECwPl0-103" value="读取文件 1 table n 部分" style="text;html=1;strokeColor=none;fillColor=none;align=center;verticalAlign=middle;whiteSpace=wrap;rounded=0;strokeWidth=0;fontSize=10;fontStyle=1" vertex="1" parent="1">
          <mxGeometry x="50" y="500" width="70" height="30" as="geometry" />
        </mxCell>
        <mxCell id="d2luuPzeZMeKNCECwPl0-104" value="读取文件 2 table 1 部分" style="text;html=1;strokeColor=none;fillColor=none;align=center;verticalAlign=middle;whiteSpace=wrap;rounded=0;fontSize=10;fontStyle=1" vertex="1" parent="1">
          <mxGeometry x="310" y="410" width="70" height="30" as="geometry" />
        </mxCell>
        <mxCell id="d2luuPzeZMeKNCECwPl0-105" value="读取文件 2 table 2 部分" style="text;html=1;strokeColor=none;fillColor=none;align=center;verticalAlign=middle;whiteSpace=wrap;rounded=0;fontSize=10;fontStyle=1" vertex="1" parent="1">
          <mxGeometry x="310" y="452.5" width="70" height="35" as="geometry" />
        </mxCell>
        <mxCell id="d2luuPzeZMeKNCECwPl0-106" value="读取文件 2 table n 部分" style="text;html=1;strokeColor=none;fillColor=none;align=center;verticalAlign=middle;whiteSpace=wrap;rounded=0;fontSize=10;fontStyle=1" vertex="1" parent="1">
          <mxGeometry x="310" y="500" width="70" height="30" as="geometry" />
        </mxCell>
        <mxCell id="d2luuPzeZMeKNCECwPl0-107" value="读取文件 n table 1 部分" style="text;html=1;strokeColor=none;fillColor=none;align=center;verticalAlign=middle;whiteSpace=wrap;rounded=0;fontSize=10;fontStyle=1" vertex="1" parent="1">
          <mxGeometry x="750" y="412.5" width="70" height="30" as="geometry" />
        </mxCell>
        <mxCell id="d2luuPzeZMeKNCECwPl0-108" value="读取文件 n table 2 部分" style="text;html=1;strokeColor=none;fillColor=none;align=center;verticalAlign=middle;whiteSpace=wrap;rounded=0;fontSize=10;fontStyle=1" vertex="1" parent="1">
          <mxGeometry x="750" y="452.5" width="70" height="30" as="geometry" />
        </mxCell>
        <mxCell id="d2luuPzeZMeKNCECwPl0-109" value="读取文件 n table n 部分" style="text;html=1;strokeColor=none;fillColor=none;align=center;verticalAlign=middle;whiteSpace=wrap;rounded=0;fontSize=10;fontStyle=1" vertex="1" parent="1">
          <mxGeometry x="750" y="497.5" width="70" height="30" as="geometry" />
        </mxCell>
      </root>
    </mxGraphModel>
  </diagram>
</mxfile>
